
            <svg data-logo="logo" xmlns="http://www.w3.org/2000/svg" viewBox="0 0 224 41">
                <g id="logogram" transform="translate(0, 3.5)"><path d="M16.0573 0H37.1389L21.6397 22.9729H0.558105L16.0573 0Z" fill="#007AFF"/><path d="M16.9805 25.102L10.9773 34H33.0589L48.5581 11.0271H32.2605L22.7645 25.102H16.9805Z" fill="#312ECB"/></g>
                <g id="logotype" transform="translate(55, 0)"><path fill="#111111" d="M14.02 35L7.96 35L7.96 9.48L20.11 9.48Q21.86 9.48 23.31 9.83Q24.76 10.18 25.90 10.88Q27.04 11.58 27.81 12.60Q28.58 13.61 29.00 14.93Q29.42 16.24 29.42 17.85L29.42 17.85Q29.42 20.54 28.24 22.42Q27.07 24.29 24.99 25.25Q22.91 26.21 20.07 26.21L20.07 26.21L13.46 26.21L13.46 21.56L19.48 21.56Q21.19 21.56 22.12 20.72Q23.05 19.88 23.05 18.44L23.05 18.44L23.05 17.43Q23.05 15.89 22.10 15.08Q21.16 14.28 19.48 14.28L19.48 14.28L14.02 14.28L14.02 35ZM37.36 35L31.59 35L31.59 16.20L37.36 16.20L37.36 35ZM37.36 13.82L31.59 13.82L31.59 9.20L37.36 9.20L37.36 13.82ZM45.66 35L39.08 35L46.29 25.09L39.60 16.20L46.11 16.20L49.96 21.77L50.17 21.77L53.99 16.20L60.57 16.20L53.78 24.99L61.09 35L54.48 35L50.21 28.80L49.96 28.80L45.66 35ZM72.22 35.35L72.22 35.35Q69.91 35.35 68.06 34.74Q66.20 34.13 64.87 32.97Q63.54 31.81 62.84 30.15Q62.14 28.49 62.14 26.42L62.14 26.42L62.14 24.74Q62.14 22.02 63.38 20.02Q64.63 18.02 66.90 16.94Q69.18 15.85 72.22 15.85L72.22 15.85Q74.46 15.85 76.26 16.47Q78.06 17.08 79.36 18.23Q80.66 19.39 81.36 21.02Q82.06 22.64 82.06 24.64L82.06 24.64L82.06 27.02L67.15 27.02L67.15 23.73L76.63 23.73L76.18 24.25L76.18 23.10Q76.18 22.09 75.69 21.33Q75.20 20.58 74.32 20.16Q73.45 19.74 72.22 19.74L72.22 19.74Q70.93 19.74 70.00 20.18Q69.07 20.61 68.58 21.40Q68.09 22.19 68.09 23.24L68.09 23.24L68.09 27.93Q68.09 28.95 68.60 29.75Q69.11 30.55 70.05 30.99Q71.00 31.43 72.29 31.43L72.29 31.43Q73.87 31.43 74.88 30.84Q75.90 30.24 76.18 29.16L76.18 29.16L81.84 29.16Q81.56 31.08 80.24 32.46Q78.91 33.84 76.84 34.60Q74.78 35.35 72.22 35.35ZM102.78 35L84.44 35L84.44 9.48L90.49 9.48L90.49 30.20L102.78 30.20L102.78 35ZM114.43 35.35L114.43 35.35Q112.09 35.35 110.21 34.74Q108.34 34.13 107.03 32.95Q105.72 31.78 105.02 30.13Q104.32 28.49 104.32 26.42L104.32 26.42L104.32 24.74Q104.32 22.02 105.54 20.02Q106.77 18.02 109.04 16.94Q111.32 15.85 114.43 15.85L114.43 15.85Q116.78 15.85 118.65 16.47Q120.52 17.08 121.83 18.25Q123.15 19.42 123.86 21.07Q124.58 22.71 124.58 24.74L124.58 24.74L124.58 26.42Q124.58 29.16 123.34 31.17Q122.10 33.18 119.84 34.27Q117.58 35.35 114.43 35.35ZM114.43 31.11L114.43 31.11Q115.73 31.11 116.65 30.68Q117.58 30.24 118.09 29.42Q118.60 28.59 118.60 27.58L118.60 27.58L118.60 23.63Q118.60 22.54 118.09 21.73Q117.58 20.93 116.65 20.49Q115.73 20.05 114.43 20.05L114.43 20.05Q113.17 20.05 112.23 20.49Q111.28 20.93 110.77 21.73Q110.27 22.54 110.27 23.63L110.27 23.63L110.27 27.58Q110.27 28.59 110.77 29.42Q111.28 30.24 112.23 30.68Q113.17 31.11 114.43 31.11ZM135.64 41.20L135.64 41.20Q131.76 41.20 129.38 39.67Q127.00 38.15 126.58 35.52L126.58 35.52L132.18 35.52Q132.42 36.47 133.35 36.89Q134.28 37.31 135.68 37.31L135.68 37.31Q137.04 37.31 137.95 36.92Q138.86 36.54 139.32 35.80Q139.77 35.07 139.77 34.05L139.77 34.05L139.77 31.22L139.53 31.22Q138.72 32.59 137.15 33.30Q135.57 34.02 133.72 34.02L133.72 34.02Q131.44 34.02 129.73 33.04Q128.01 32.06 127.07 30.27Q126.12 28.49 126.12 26.07L126.12 26.07L126.12 23.80Q126.12 21.42 127.08 19.63Q128.05 17.85 129.80 16.87Q131.55 15.89 133.86 15.89L133.86 15.89Q135.75 15.89 137.27 16.61Q138.79 17.32 139.56 18.55L139.56 18.55L139.84 18.55L140.26 16.20L145.55 16.20L145.55 33.56Q145.55 36.09 144.32 37.78Q143.10 39.48 140.87 40.34Q138.65 41.20 135.64 41.20ZM135.96 29.89L135.96 29.89Q137.29 29.89 138.28 29.29Q139.28 28.70 139.77 27.65L139.77 27.65L139.77 22.23Q139.28 21.17 138.28 20.60Q137.29 20.02 135.96 20.02L135.96 20.02Q134.80 20.02 133.94 20.42Q133.09 20.82 132.60 21.61Q132.11 22.40 132.11 23.52L132.11 23.52L132.11 26.32Q132.11 27.44 132.60 28.24Q133.09 29.05 133.96 29.47Q134.84 29.89 135.96 29.89ZM157.80 35.35L157.80 35.35Q155.45 35.35 153.58 34.74Q151.71 34.13 150.39 32.95Q149.08 31.78 148.38 30.13Q147.68 28.49 147.68 26.42L147.68 26.42L147.68 24.74Q147.68 22.02 148.91 20.02Q150.13 18.02 152.41 16.94Q154.68 15.85 157.80 15.85L157.80 15.85Q160.14 15.85 162.01 16.47Q163.89 17.08 165.20 18.25Q166.51 19.42 167.23 21.07Q167.95 22.71 167.95 24.74L167.95 24.74L167.95 26.42Q167.95 29.16 166.70 31.17Q165.46 33.18 163.20 34.27Q160.95 35.35 157.80 35.35ZM157.80 31.11L157.80 31.11Q159.09 31.11 160.02 30.68Q160.95 30.24 161.45 29.42Q161.96 28.59 161.96 27.58L161.96 27.58L161.96 23.63Q161.96 22.54 161.45 21.73Q160.95 20.93 160.02 20.49Q159.09 20.05 157.80 20.05L157.80 20.05Q156.54 20.05 155.59 20.49Q154.65 20.93 154.14 21.73Q153.63 22.54 153.63 23.63L153.63 23.63L153.63 27.58Q153.63 28.59 154.14 29.42Q154.65 30.24 155.59 30.68Q156.54 31.11 157.80 31.11Z"/></g>
                
            </svg>
        